<svg width="18" height="18" viewBox="0 0 18 18" fill="none" xmlns="http://www.w3.org/2000/svg">
<path d="M6.59224 17.8002L6.24199 14.9842C6.05227 14.9109 5.87335 14.8229 5.70523 14.7202C5.53711 14.6175 5.37308 14.5075 5.21313 14.3902L2.60816 15.4902L0.200195 11.3102L2.45492 9.59419C2.44033 9.49153 2.43303 9.39238 2.43303 9.29675V8.70364C2.43303 8.60801 2.44033 8.50886 2.45492 8.40619L0.200195 6.69019L2.60816 2.5102L5.21313 3.6102C5.37366 3.49286 5.54149 3.38286 5.71661 3.28019C5.89174 3.17753 6.06686 3.08953 6.24199 3.01619L6.59224 0.200195H11.4082L11.7584 3.01619C11.9481 3.08953 12.127 3.17753 12.2952 3.28019C12.4633 3.38286 12.6273 3.49286 12.7873 3.6102L15.3922 2.5102L17.8002 6.69019L15.5455 8.40619C15.5601 8.50886 15.5674 8.60801 15.5674 8.70364V9.29675C15.5674 9.39238 15.5528 9.49153 15.5236 9.59419L17.7783 11.3102L15.3703 15.4902L12.7873 14.3902C12.6267 14.5075 12.4589 14.6175 12.2838 14.7202C12.1087 14.8229 11.9335 14.9109 11.7584 14.9842L11.4082 17.8002H6.59224ZM9.04398 12.0802C9.89041 12.0802 10.6128 11.7795 11.2111 11.1782C11.8095 10.5769 12.1087 9.85086 12.1087 9.00019C12.1087 8.14953 11.8095 7.42353 11.2111 6.82219C10.6128 6.22086 9.89041 5.9202 9.04398 5.9202C8.18295 5.9202 7.45677 6.22086 6.86543 6.82219C6.27409 7.42353 5.97872 8.14953 5.9793 9.00019C5.9793 9.85086 6.27468 10.5769 6.86543 11.1782C7.45618 11.7795 8.18236 12.0802 9.04398 12.0802ZM9.04398 10.3202C8.67913 10.3202 8.36887 10.1917 8.11319 9.93475C7.85751 9.67779 7.72996 9.36627 7.73054 9.00019C7.73054 8.63353 7.85838 8.32172 8.11407 8.06475C8.36975 7.8078 8.67972 7.67961 9.04398 7.68019C9.40882 7.68019 9.71908 7.80867 9.97476 8.06563C10.2304 8.32259 10.358 8.63411 10.3574 9.00019C10.3574 9.36686 10.2296 9.67867 9.97389 9.93563C9.71821 10.1926 9.40824 10.3208 9.04398 10.3202ZM8.12457 16.0402H9.85393L10.1604 13.7082C10.6128 13.5909 11.0325 13.4184 11.4195 13.1908C11.8066 12.9631 12.1603 12.6883 12.4808 12.3662L14.648 13.2682L15.5017 11.7722L13.6191 10.3422C13.6921 10.1369 13.7431 9.92067 13.7723 9.69363C13.8015 9.46659 13.8161 9.23545 13.8161 9.00019C13.8161 8.76553 13.8015 8.53467 13.7723 8.30764C13.7431 8.0806 13.6921 7.86412 13.6191 7.6582L15.5017 6.2282L14.648 4.73219L12.4808 5.65619C12.1597 5.31886 11.806 5.03667 11.4195 4.80963C11.0331 4.58259 10.6134 4.41012 10.1604 4.2922L9.87582 1.9602H8.14646L7.84 4.2922C7.38759 4.40953 6.96817 4.58201 6.58173 4.80963C6.19529 5.03726 5.84124 5.31212 5.5196 5.63419L3.35243 4.73219L2.4987 6.2282L4.38129 7.63619C4.30832 7.85619 4.25724 8.07619 4.22806 8.29619C4.19887 8.51619 4.18427 8.75086 4.18427 9.00019C4.18427 9.23486 4.19887 9.46219 4.22806 9.68219C4.25724 9.90219 4.30832 10.1222 4.38129 10.3422L2.4987 11.7722L3.35243 13.2682L5.5196 12.3442C5.84066 12.6815 6.1947 12.964 6.58173 13.1916C6.96875 13.4193 7.38818 13.5914 7.84 13.7082L8.12457 16.0402Z" fill="#FFF"/>
</svg>
