<svg width="18" height="18" viewBox="0 0 18 18" fill="none" xmlns="http://www.w3.org/2000/svg">
<path d="M9.00019 13.4002C9.24953 13.4002 9.45867 13.3157 9.62763 13.1468C9.79659 12.9778 9.88078 12.7689 9.88019 12.5202V9.00019C9.88019 8.75086 9.79571 8.54171 9.62675 8.37275C9.45779 8.20379 9.24894 8.11961 9.00019 8.12019C8.75086 8.12019 8.54171 8.20467 8.37275 8.37363C8.20379 8.54259 8.11961 8.75145 8.12019 9.00019V12.5202C8.12019 12.7695 8.20467 12.9787 8.37363 13.1476C8.54259 13.3166 8.75145 13.4008 9.00019 13.4002ZM9.00019 6.36019C9.24953 6.36019 9.45867 6.27571 9.62763 6.10675C9.79659 5.93779 9.88078 5.72894 9.88019 5.48019C9.88019 5.23086 9.79571 5.02171 9.62675 4.85275C9.45779 4.68379 9.24894 4.59961 9.00019 4.60019C8.75086 4.60019 8.54171 4.68467 8.37275 4.85363C8.20379 5.02259 8.11961 5.23145 8.12019 5.48019C8.12019 5.72953 8.20467 5.93867 8.37363 6.10763C8.54259 6.27659 8.75145 6.36078 9.00019 6.36019ZM9.00019 17.8002C7.78286 17.8002 6.63886 17.569 5.56819 17.1068C4.49753 16.6445 3.56619 16.0176 2.77419 15.2262C1.9822 14.4342 1.35534 13.5029 0.893635 12.4322C0.431929 11.3615 0.200782 10.2175 0.200195 9.00019C0.200195 7.78286 0.431342 6.63886 0.893635 5.56819C1.35593 4.49753 1.98278 3.56619 2.77419 2.77419C3.56619 1.9822 4.49753 1.35534 5.56819 0.893635C6.63886 0.431929 7.78286 0.200782 9.00019 0.200195C10.2175 0.200195 11.3615 0.431342 12.4322 0.893635C13.5029 1.35593 14.4342 1.98278 15.2262 2.77419C16.0182 3.56619 16.6453 4.49753 17.1076 5.56819C17.5699 6.63886 17.8008 7.78286 17.8002 9.00019C17.8002 10.2175 17.569 11.3615 17.1068 12.4322C16.6445 13.5029 16.0176 14.4342 15.2262 15.2262C14.4342 16.0182 13.5029 16.6453 12.4322 17.1076C11.3615 17.5699 10.2175 17.8008 9.00019 17.8002ZM9.00019 16.0402C10.9655 16.0402 12.6302 15.3582 13.9942 13.9942C15.3582 12.6302 16.0402 10.9655 16.0402 9.00019C16.0402 7.03486 15.3582 5.37019 13.9942 4.00619C12.6302 2.64219 10.9655 1.96019 9.00019 1.96019C7.03486 1.96019 5.37019 2.64219 4.00619 4.00619C2.64219 5.37019 1.96019 7.03486 1.96019 9.00019C1.96019 10.9655 2.64219 12.6302 4.00619 13.9942C5.37019 15.3582 7.03486 16.0402 9.00019 16.0402Z" fill="#FFF"/>
</svg>
