<svg width="20" height="18" viewBox="0 0 20 18" fill="none" xmlns="http://www.w3.org/2000/svg">
<path d="M6.27316 12.0502H2.6647L5.67535 3.5502H8.24751H8.39751V3.4002V2.3002V2.1502H8.24751H4.72842H4.62248L4.58706 2.25003L1.0986 12.0809C1.08256 12.1023 1.07456 12.1226 1.07194 12.1297C1.0608 12.1601 1.05698 12.1924 1.05517 12.2172C1.05129 12.2701 1.05353 12.3413 1.05974 12.426C1.07132 12.584 1.07152 12.7779 1.05954 13.0088C1.04705 13.2495 1.04714 13.5292 1.05945 13.8474C1.07152 14.1595 1.07454 14.4775 1.0685 14.8013C1.06237 15.1297 1.06237 15.4553 1.0685 15.778C1.07458 16.0981 1.07762 16.3922 1.07762 16.6604V17.7002V17.8502H1.22762H18.7773H18.9987L18.9167 17.6446C18.9176 17.6469 18.9176 17.6468 18.9171 17.6434C18.9163 17.6364 18.9136 17.6156 18.9136 17.5734C18.9136 17.5183 18.9178 17.4425 18.9267 17.3443C18.9458 17.1353 18.9488 16.9019 18.9363 16.6445C18.9244 16.3978 18.9243 16.11 18.9364 15.7807C18.9487 15.4457 18.9517 15.1164 18.9456 14.7927C18.9395 14.4737 18.9395 14.1577 18.9456 13.8445C18.9517 13.5278 18.9517 13.2476 18.9456 13.0042C18.9395 12.7642 18.9365 12.568 18.9365 12.415C18.9365 12.3371 18.9357 12.2755 18.9341 12.2312C18.9333 12.2093 18.9322 12.1896 18.9306 12.1734C18.9299 12.1655 18.9288 12.1561 18.9271 12.1467C18.9265 12.1434 18.9242 12.1294 18.9176 12.1125L15.4179 2.25003L15.3825 2.1502H15.2765H11.7575H11.6075V2.3002V3.4002V3.5502H11.7575H14.3296L17.3403 12.0502H13.7318H13.6417L13.5994 12.1298L12.4717 14.2502H7.53327L6.4056 12.1298L6.36328 12.0502H6.27316ZM13.2931 15.6502H13.3832L13.4255 15.5706L14.5532 13.4502H17.4574V16.4502H2.5476V13.4502H5.4518L6.57947 15.5706L6.62178 15.6502H6.71191H13.2931ZM13.1722 6.59074L10.7375 8.87206V1.2002V1.0502H10.5875H9.41749H9.26749V1.2002V8.87206L6.83275 6.59074L6.73001 6.49447L6.62744 6.59091L5.8048 7.36435L5.68856 7.47363L5.8048 7.58292L9.89973 11.4329L10.0025 11.5295L10.1052 11.4329L14.2002 7.58292L14.3164 7.47363L14.2002 7.36435L13.3775 6.59091L13.2749 6.49447L13.1722 6.59074Z" fill="#FFF" stroke="#FFF" stroke-width="0.3"/>
</svg>
