<svg width="20" height="18" viewBox="0 0 20 18" fill="none" xmlns="http://www.w3.org/2000/svg">
<path d="M11.4178 8.72661L13.4222 6.72217M8.04443 10.1444C8.04443 10.663 8.25047 11.1604 8.6172 11.5272C8.98394 11.8939 9.48134 12.0999 9.99999 12.0999C10.5186 12.0999 11.016 11.8939 11.3828 11.5272C11.7495 11.1604 11.9555 10.663 11.9555 10.1444C11.9555 9.62574 11.7495 9.12834 11.3828 8.7616C11.016 8.39487 10.5186 8.18883 9.99999 8.18883C9.48134 8.18883 8.98394 8.39487 8.6172 8.7616C8.25047 9.12834 8.04443 9.62574 8.04443 10.1444Z" stroke="#FFF" stroke-width="1.7" stroke-linecap="round" stroke-linejoin="round"/>
<path d="M4.52464 16.9888C3.09527 15.8527 2.05469 14.3001 1.54709 12.5462C1.03949 10.7923 1.09002 8.92398 1.69167 7.20008C2.29332 5.47618 3.4163 3.98212 4.90498 2.92493C6.39366 1.86775 8.17432 1.2998 10.0002 1.2998C11.8261 1.2998 13.6067 1.86775 15.0954 2.92493C16.5841 3.98212 17.7071 5.47618 18.3087 7.20008C18.9104 8.92398 18.9609 10.7923 18.4533 12.5462C17.9457 14.3001 16.9051 15.8527 15.4758 16.9888H4.52464Z" stroke="#FFF" stroke-width="1.7" stroke-linecap="round" stroke-linejoin="round"/>
</svg>
