<svg width="30" height="25" viewBox="0 0 30 25" fill="none" xmlns="http://www.w3.org/2000/svg">
<path fill-rule="evenodd" clip-rule="evenodd" d="M6.40656 10.7875H28.125C28.6223 10.7875 29.0992 10.9679 29.4508 11.289C29.8025 11.6102 30 12.0457 30 12.4999C30 12.954 29.8025 13.3896 29.4508 13.7107C29.0992 14.0318 28.6223 14.2122 28.125 14.2122H6.40656L15.0148 22.0737C15.3669 22.395 15.5648 22.8309 15.565 23.2855C15.5651 23.74 15.3676 24.176 15.0157 24.4976C14.6639 24.8191 14.1866 24.9998 13.6889 25C13.1911 25.0002 12.7137 24.8197 12.3616 24.4984L0.548982 13.7105C0.197469 13.3894 0 12.9539 0 12.4999C0 12.0458 0.197469 11.6103 0.548982 11.2892L12.3616 0.501318C12.714 0.180009 13.1916 -0.000320703 13.6895 4.28169e-07C14.1875 0.000321559 14.6648 0.181267 15.0167 0.503031C15.3685 0.824795 15.566 1.26102 15.5656 1.71574C15.5653 2.17046 15.3671 2.60643 15.0148 2.92774L6.40656 10.7875Z" fill="#8792A2"/>
</svg>
