<svg width="49" height="49" viewBox="0 0 49 49" fill="none" xmlns="http://www.w3.org/2000/svg">
<circle cx="24.0416" cy="24.5" r="14" stroke="#D3D3D3" stroke-width="6"/>
<mask id="path-2-inside-1_196_49" fill="white">
<path d="M7.62089 20.1001C6.71326 23.4874 6.87538 27.0725 8.08502 30.364C9.29466 33.6556 11.4926 36.4925 14.3777 38.486C17.2627 40.4795 20.6937 41.532 24.2003 41.4993C27.707 41.4665 31.1177 40.3501 33.965 38.3031C36.8123 36.2561 38.957 33.3787 40.1049 30.0651C41.2529 26.7515 41.3481 23.164 40.3774 19.7943C39.4067 16.4245 37.4176 13.4374 34.6828 11.2423C31.948 9.04725 28.6012 7.75164 25.1013 7.53305L24.7238 13.5767C26.9771 13.7174 29.1317 14.5515 30.8924 15.9647C32.6531 17.3779 33.9336 19.301 34.5586 21.4705C35.1835 23.6399 35.1222 25.9495 34.3832 28.0828C33.6441 30.2161 32.2634 32.0686 30.4303 33.3865C28.5972 34.7043 26.4014 35.423 24.1438 35.4441C21.8862 35.4652 19.6774 34.7876 17.82 33.5042C15.9626 32.2208 14.5475 30.3944 13.7688 28.2753C12.99 26.1562 12.8856 23.8481 13.47 21.6673L7.62089 20.1001Z"/>
</mask>
<path d="M7.62089 20.1001C6.71326 23.4874 6.87538 27.0725 8.08502 30.364C9.29466 33.6556 11.4926 36.4925 14.3777 38.486C17.2627 40.4795 20.6937 41.532 24.2003 41.4993C27.707 41.4665 31.1177 40.3501 33.965 38.3031C36.8123 36.2561 38.957 33.3787 40.1049 30.0651C41.2529 26.7515 41.3481 23.164 40.3774 19.7943C39.4067 16.4245 37.4176 13.4374 34.6828 11.2423C31.948 9.04725 28.6012 7.75164 25.1013 7.53305L24.7238 13.5767C26.9771 13.7174 29.1317 14.5515 30.8924 15.9647C32.6531 17.3779 33.9336 19.301 34.5586 21.4705C35.1835 23.6399 35.1222 25.9495 34.3832 28.0828C33.6441 30.2161 32.2634 32.0686 30.4303 33.3865C28.5972 34.7043 26.4014 35.423 24.1438 35.4441C21.8862 35.4652 19.6774 34.7876 17.82 33.5042C15.9626 32.2208 14.5475 30.3944 13.7688 28.2753C12.99 26.1562 12.8856 23.8481 13.47 21.6673L7.62089 20.1001Z" stroke="url(#paint0_linear_196_49)" stroke-width="22" mask="url(#path-2-inside-1_196_49)"/>
<defs>
<linearGradient id="paint0_linear_196_49" x1="12.0208" y1="36.5208" x2="36.0624" y2="12.4792" gradientUnits="userSpaceOnUse">
<stop stop-color="#B01827"/>
<stop offset="1" stop-color="#F15464"/>
</linearGradient>
</defs>
</svg>
