<svg width="18" height="19" viewBox="0 0 18 19" fill="none" xmlns="http://www.w3.org/2000/svg">
<path d="M3.64705 16.0367L1.69375 17.99C1.42481 18.2589 1.11681 18.3192 0.769749 18.1709C0.422685 18.0226 0.249435 17.757 0.250001 17.3743V4.14705C0.250001 3.67995 0.416457 3.27995 0.749367 2.94704C1.08228 2.61413 1.482 2.44796 1.94852 2.44852H10.5261C10.4694 2.73161 10.4411 3.0147 10.4411 3.29778C10.4411 3.58087 10.4694 3.86396 10.5261 4.14705H1.94852V14.3382H15.5367V7.45917C15.8623 7.38839 16.1666 7.29271 16.4497 7.17211C16.7327 7.05152 16.9946 6.89242 17.2352 6.69483V14.3382C17.2352 14.8053 17.0688 15.2053 16.7359 15.5382C16.403 15.8711 16.0032 16.0373 15.5367 16.0367H3.64705ZM14.6874 5.84557C13.9797 5.84557 13.3782 5.59787 12.8828 5.10246C12.3874 4.60706 12.1397 4.0055 12.1397 3.29778C12.1397 2.59007 12.3874 1.98851 12.8828 1.4931C13.3782 0.997701 13.9797 0.75 14.6874 0.75C15.3952 0.75 15.9967 0.997701 16.4921 1.4931C16.9875 1.98851 17.2352 2.59007 17.2352 3.29778C17.2352 4.0055 16.9875 4.60706 16.4921 5.10246C15.9967 5.59787 15.3952 5.84557 14.6874 5.84557Z" fill="#7F56D9"/>
</svg>
