<svg width="14" height="17" viewBox="0 0 14 17" fill="none" xmlns="http://www.w3.org/2000/svg">
<path d="M1.6 16.5C1.16 16.5 0.783201 16.3432 0.469601 16.0296C0.156001 15.716 -0.000531975 15.3395 1.35823e-06 14.9V4.5C1.35823e-06 4.27333 0.0768014 4.0832 0.230401 3.9296C0.384001 3.776 0.573868 3.69947 0.800001 3.7C1.02667 3.7 1.2168 3.7768 1.3704 3.9304C1.524 4.084 1.60053 4.27387 1.6 4.5V14.9H9.6C9.82666 14.9 10.0168 14.9768 10.1704 15.1304C10.324 15.284 10.4005 15.4739 10.4 15.7C10.4 15.9267 10.3232 16.1168 10.1696 16.2704C10.016 16.424 9.82613 16.5005 9.6 16.5H1.6ZM4.8 13.3C4.36 13.3 3.9832 13.1432 3.6696 12.8296C3.356 12.516 3.19947 12.1395 3.2 11.7V2.1C3.2 1.66 3.3568 1.2832 3.6704 0.969601C3.984 0.656001 4.36053 0.499468 4.8 0.500001H12C12.44 0.500001 12.8168 0.656801 13.1304 0.970401C13.444 1.284 13.6005 1.66053 13.6 2.1V11.7C13.6 12.14 13.4432 12.5168 13.1296 12.8304C12.816 13.144 12.4395 13.3005 12 13.3H4.8ZM4.8 11.7H12V2.1H4.8V11.7Z" fill="#667085"/>
</svg>
