<svg width="36" height="37" viewBox="0 0 36 37" fill="none" xmlns="http://www.w3.org/2000/svg">
<rect x="0.00012207" y="0.5" width="36" height="36" rx="18" fill="#3D0BAB"/>
<g clip-path="url(#clip0_196_54)">
<path d="M18.0001 9C16.8066 9 15.6621 9.44777 14.8181 10.2448C13.9742 11.0418 13.5001 12.1228 13.5001 13.25C13.5001 14.3772 13.9742 15.4582 14.8181 16.2552C15.6621 17.0522 16.8066 17.5 18.0001 17.5C19.1936 17.5 20.3382 17.0522 21.1821 16.2552C22.026 15.4582 22.5001 14.3772 22.5001 13.25C22.5001 12.1228 22.026 11.0418 21.1821 10.2448C20.3382 9.44777 19.1936 9 18.0001 9ZM18.0001 15.4813C17.3735 15.4813 16.7726 15.2462 16.3296 14.8277C15.8865 14.4093 15.6376 13.8418 15.6376 13.25C15.6376 12.6582 15.8865 12.0907 16.3296 11.6723C16.7726 11.2538 17.3735 11.0188 18.0001 11.0188C18.3104 11.0188 18.6176 11.0765 18.9042 11.1886C19.1908 11.3007 19.4513 11.4651 19.6707 11.6723C19.89 11.8795 20.0641 12.1254 20.1828 12.3961C20.3015 12.6668 20.3626 12.957 20.3626 13.25C20.3626 13.543 20.3015 13.8332 20.1828 14.1039C20.0641 14.3746 19.89 14.6205 19.6707 14.8277C19.4513 15.0349 19.1908 15.1993 18.9042 15.3114C18.6176 15.4235 18.3104 15.4813 18.0001 15.4813ZM18.0001 18.5625C14.9964 18.5625 9.00012 19.9756 9.00012 22.8125V26H27.0001V22.8125C27.0001 19.9756 21.0039 18.5625 18.0001 18.5625ZM24.8626 23.9813H11.1376V22.8125C11.1376 22.1325 14.6251 20.5812 18.0001 20.5812C21.3414 20.5812 24.8626 22.1325 24.8626 22.8125V23.9813Z" fill="white"/>
</g>
<defs>
<clipPath id="clip0_196_54">
<rect width="18" height="17" fill="white" transform="translate(9.00012 9)"/>
</clipPath>
</defs>
</svg>
