<svg width="36" height="37" viewBox="0 0 36 37" fill="none" xmlns="http://www.w3.org/2000/svg">
<path d="M19.6001 25.9V29.1H16.4001V25.9H19.6001ZM0.200122 18.5C0.200122 8.67446 8.17458 0.7 18.0001 0.7C27.8257 0.7 35.8001 8.67446 35.8001 18.5C35.8001 28.3255 27.8257 36.3 18.0001 36.3C8.17458 36.3 0.200122 28.3255 0.200122 18.5ZM3.40012 18.5C3.40012 26.5485 9.95167 33.1 18.0001 33.1C26.0486 33.1 32.6001 26.5485 32.6001 18.5C32.6001 10.4515 26.0486 3.9 18.0001 3.9C9.95166 3.9 3.40012 10.4515 3.40012 18.5ZM16.4023 23.7C16.4316 22.3736 16.7522 21.4004 17.215 20.6356C17.7025 19.8298 18.355 19.2429 19.0243 18.7131C19.1809 18.5891 19.3398 18.4673 19.498 18.3461C20.0059 17.9568 20.5071 17.5728 20.9042 17.1371C21.4367 16.5528 21.8001 15.8597 21.8001 14.9C21.8001 12.8095 20.0906 11.1 18.0001 11.1C15.9767 11.1 14.3102 12.7016 14.2054 14.7H11.0029C11.1087 10.925 14.1995 7.9 18.0001 7.9C21.8677 7.9 25.0001 11.0325 25.0001 14.9C25.0001 17.0512 23.7208 18.2349 22.3684 19.4182C22.327 19.4544 22.2856 19.4907 22.244 19.5269C20.9876 20.6243 19.6882 21.7591 19.6044 23.7H16.4023Z" fill="#667085" stroke="white" stroke-width="0.4"/>
</svg>
