<svg width="15" height="15" viewBox="0 0 15 15" fill="none" xmlns="http://www.w3.org/2000/svg">
<path d="M7.5 15C5.40278 15 3.62833 14.6769 2.17667 14.0308C0.725 13.3847 -0.000555237 12.5967 3.18796e-07 11.6667V3.33333C3.18796e-07 2.41667 0.732778 1.63194 2.19833 0.979167C3.66389 0.326389 5.43111 0 7.5 0C9.56944 0 11.3369 0.326389 12.8025 0.979167C14.2681 1.63194 15.0006 2.41667 15 3.33333V11.6667C15 12.5972 14.2742 13.3856 12.8225 14.0317C11.3708 14.6778 9.59667 15.0006 7.5 15ZM7.5 5.02083C8.73611 5.02083 9.97917 4.84361 11.2292 4.48917C12.4792 4.13472 13.1806 3.75639 13.3333 3.35417C13.1806 2.95139 12.4825 2.56944 11.2392 2.20833C9.99583 1.84722 8.74944 1.66667 7.5 1.66667C6.23611 1.66667 4.99639 1.84389 3.78083 2.19833C2.56528 2.55278 1.86056 2.93778 1.66667 3.35333C1.86111 3.77 2.56611 4.15194 3.78167 4.49917C4.99722 4.84639 6.23667 5.02028 7.5 5.02083ZM7.5 9.16667C8.08333 9.16667 8.64583 9.13889 9.1875 9.08333C9.72917 9.02778 10.2467 8.94778 10.74 8.84333C11.2328 8.73944 11.6981 8.61111 12.1358 8.45833C12.5736 8.30556 12.9728 8.13194 13.3333 7.9375V5.4375C12.9722 5.63194 12.5728 5.80556 12.135 5.95833C11.6972 6.11111 11.2319 6.23972 10.7392 6.34417C10.2464 6.44806 9.72917 6.52778 9.1875 6.58333C8.64583 6.63889 8.08333 6.66667 7.5 6.66667C6.91667 6.66667 6.34722 6.63889 5.79167 6.58333C5.23611 6.52778 4.71167 6.44778 4.21833 6.34333C3.72556 6.23944 3.26389 6.11111 2.83333 5.95833C2.40278 5.80556 2.01389 5.63194 1.66667 5.4375V7.9375C2.01389 8.13194 2.40278 8.30556 2.83333 8.45833C3.26389 8.61111 3.72583 8.73972 4.21917 8.84417C4.71194 8.94806 5.23611 9.02778 5.79167 9.08333C6.34722 9.13889 6.91667 9.16667 7.5 9.16667ZM7.5 13.3333C8.13889 13.3333 8.78806 13.2847 9.4475 13.1875C10.1069 13.0903 10.7147 12.9617 11.2708 12.8017C11.8264 12.6422 12.2917 12.4617 12.6667 12.26C13.0417 12.0583 13.2639 11.8536 13.3333 11.6458V9.60417C12.9722 9.79861 12.5728 9.97222 12.135 10.125C11.6972 10.2778 11.2319 10.4064 10.7392 10.5108C10.2464 10.6147 9.72917 10.6944 9.1875 10.75C8.64583 10.8056 8.08333 10.8333 7.5 10.8333C6.91667 10.8333 6.34722 10.8056 5.79167 10.75C5.23611 10.6944 4.71167 10.6144 4.21833 10.51C3.72556 10.4061 3.26389 10.2778 2.83333 10.125C2.40278 9.97222 2.01389 9.79861 1.66667 9.60417V11.6667C1.73611 11.875 1.955 12.0764 2.32333 12.2708C2.69167 12.4653 3.15333 12.6425 3.70833 12.8025C4.26389 12.9619 4.875 13.0903 5.54167 13.1875C6.20833 13.2847 6.86111 13.3333 7.5 13.3333Z" fill="#667085"/>
</svg>
