<svg width="12" height="17" viewBox="0 0 12 17" fill="none" xmlns="http://www.w3.org/2000/svg">
<path d="M1 5.7C1 3.7204 1 2.7299 1.6153 2.1153C2.2299 1.5 3.2204 1.5 5.2 1.5H6.6C8.5796 1.5 9.5701 1.5 10.1847 2.1153C10.8 2.7299 10.8 3.7204 10.8 5.7V11.3C10.8 13.2796 10.8 14.2701 10.1847 14.8847C9.5701 15.5 8.5796 15.5 6.6 15.5H5.2C3.2204 15.5 2.2299 15.5 1.6153 14.8847C1 14.2701 1 13.2796 1 11.3V5.7Z" fill="white" stroke="#667085" stroke-width="1.5"/>
<path d="M3.80005 9.20002H8.00005H3.80005ZM3.80005 6.40002H8.00005H3.80005ZM3.80005 12H5.90005H3.80005Z" fill="white"/>
<path d="M3.80005 9.20002H8.00005M3.80005 6.40002H8.00005M3.80005 12H5.90005" stroke="#667085" stroke-width="1.5" stroke-linecap="round"/>
</svg>
