<svg width="17" height="16" viewBox="0 0 17 16" fill="none" xmlns="http://www.w3.org/2000/svg">
<path d="M8.33325 11.575C8.19992 11.575 8.07492 11.5543 7.95825 11.513C7.84159 11.4717 7.73325 11.4007 7.63325 11.3L4.03325 7.7C3.84992 7.51667 3.75825 7.28334 3.75825 7C3.75825 6.71667 3.84992 6.48334 4.03325 6.3C4.21659 6.11667 4.45425 6.021 4.74625 6.013C5.03825 6.005 5.27559 6.09234 5.45825 6.275L7.33325 8.15V1C7.33325 0.71667 7.42925 0.479004 7.62125 0.287004C7.81325 0.0950036 8.05059 -0.000663206 8.33325 3.4602e-06C8.61659 3.4602e-06 8.85425 0.0960036 9.04625 0.288004C9.23825 0.480004 9.33392 0.717337 9.33325 1V8.15L11.2083 6.275C11.3916 6.09167 11.6293 6.004 11.9213 6.012C12.2133 6.02 12.4506 6.116 12.6333 6.3C12.8166 6.48334 12.9083 6.71667 12.9083 7C12.9083 7.28334 12.8166 7.51667 12.6333 7.7L9.03325 11.3C8.93325 11.4 8.82492 11.471 8.70825 11.513C8.59159 11.555 8.46659 11.5757 8.33325 11.575ZM2.33325 16C1.78325 16 1.31225 15.804 0.920254 15.412C0.528254 15.02 0.332587 14.5493 0.333254 14V12C0.333254 11.7167 0.429254 11.479 0.621254 11.287C0.813254 11.095 1.05059 10.9993 1.33325 11C1.61659 11 1.85425 11.096 2.04625 11.288C2.23825 11.48 2.33392 11.7173 2.33325 12V14H14.3333V12C14.3333 11.7167 14.4293 11.479 14.6213 11.287C14.8133 11.095 15.0506 10.9993 15.3333 11C15.6166 11 15.8543 11.096 16.0463 11.288C16.2383 11.48 16.3339 11.7173 16.3333 12V14C16.3333 14.55 16.1373 15.021 15.7453 15.413C15.3533 15.805 14.8826 16.0007 14.3333 16H2.33325Z" fill="#667085"/>
</svg>
