<svg width="41" height="40" viewBox="0 0 41 40" fill="none" xmlns="http://www.w3.org/2000/svg">
<rect x="0.875" width="40" height="40" rx="20" fill="#EEBC59"/>
<mask id="path-2-inside-1_1_781" fill="white">
<path d="M23.927 21.4C23.983 20.938 24.025 20.476 24.025 20C24.025 19.524 23.983 19.062 23.927 18.6H26.293C26.405 19.048 26.475 19.517 26.475 20C26.475 20.483 26.405 20.952 26.293 21.4M22.688 25.292C23.108 24.515 23.43 23.675 23.654 22.8H25.719C25.0408 23.9678 23.9649 24.8524 22.688 25.292ZM22.513 21.4H19.237C19.167 20.938 19.125 20.476 19.125 20C19.125 19.524 19.167 19.055 19.237 18.6H22.513C22.576 19.055 22.625 19.524 22.625 20C22.625 20.476 22.576 20.938 22.513 21.4ZM20.875 25.572C20.294 24.732 19.825 23.801 19.538 22.8H22.212C21.925 23.801 21.456 24.732 20.875 25.572ZM18.075 17.2H16.031C16.7022 16.0291 17.7774 15.143 19.055 14.708C18.635 15.485 18.32 16.325 18.075 17.2ZM16.031 22.8H18.075C18.32 23.675 18.635 24.515 19.055 25.292C17.78 24.8522 16.7064 23.9674 16.031 22.8ZM15.457 21.4C15.345 20.952 15.275 20.483 15.275 20C15.275 19.517 15.345 19.048 15.457 18.6H17.823C17.767 19.062 17.725 19.524 17.725 20C17.725 20.476 17.767 20.938 17.823 21.4M20.875 14.421C21.456 15.261 21.925 16.199 22.212 17.2H19.538C19.825 16.199 20.294 15.261 20.875 14.421ZM25.719 17.2H23.654C23.4349 16.333 23.1105 15.4961 22.688 14.708C23.976 15.149 25.047 16.038 25.719 17.2ZM20.875 13C17.004 13 13.875 16.15 13.875 20C13.875 21.8565 14.6125 23.637 15.9253 24.9497C16.5753 25.5998 17.3469 26.1154 18.1962 26.4672C19.0455 26.8189 19.9557 27 20.875 27C22.7315 27 24.512 26.2625 25.8247 24.9497C27.1375 23.637 27.875 21.8565 27.875 20C27.875 19.0807 27.6939 18.1705 27.3422 17.3212C26.9904 16.4719 26.4748 15.7003 25.8247 15.0503C25.1747 14.4002 24.4031 13.8846 23.5538 13.5328C22.7045 13.1811 21.7943 13 20.875 13Z"/>
</mask>
<path d="M23.927 21.4C23.983 20.938 24.025 20.476 24.025 20C24.025 19.524 23.983 19.062 23.927 18.6H26.293C26.405 19.048 26.475 19.517 26.475 20C26.475 20.483 26.405 20.952 26.293 21.4M22.688 25.292C23.108 24.515 23.43 23.675 23.654 22.8H25.719C25.0408 23.9678 23.9649 24.8524 22.688 25.292ZM22.513 21.4H19.237C19.167 20.938 19.125 20.476 19.125 20C19.125 19.524 19.167 19.055 19.237 18.6H22.513C22.576 19.055 22.625 19.524 22.625 20C22.625 20.476 22.576 20.938 22.513 21.4ZM20.875 25.572C20.294 24.732 19.825 23.801 19.538 22.8H22.212C21.925 23.801 21.456 24.732 20.875 25.572ZM18.075 17.2H16.031C16.7022 16.0291 17.7774 15.143 19.055 14.708C18.635 15.485 18.32 16.325 18.075 17.2ZM16.031 22.8H18.075C18.32 23.675 18.635 24.515 19.055 25.292C17.78 24.8522 16.7064 23.9674 16.031 22.8ZM15.457 21.4C15.345 20.952 15.275 20.483 15.275 20C15.275 19.517 15.345 19.048 15.457 18.6H17.823C17.767 19.062 17.725 19.524 17.725 20C17.725 20.476 17.767 20.938 17.823 21.4M20.875 14.421C21.456 15.261 21.925 16.199 22.212 17.2H19.538C19.825 16.199 20.294 15.261 20.875 14.421ZM25.719 17.2H23.654C23.4349 16.333 23.1105 15.4961 22.688 14.708C23.976 15.149 25.047 16.038 25.719 17.2ZM20.875 13C17.004 13 13.875 16.15 13.875 20C13.875 21.8565 14.6125 23.637 15.9253 24.9497C16.5753 25.5998 17.3469 26.1154 18.1962 26.4672C19.0455 26.8189 19.9557 27 20.875 27C22.7315 27 24.512 26.2625 25.8247 24.9497C27.1375 23.637 27.875 21.8565 27.875 20C27.875 19.0807 27.6939 18.1705 27.3422 17.3212C26.9904 16.4719 26.4748 15.7003 25.8247 15.0503C25.1747 14.4002 24.4031 13.8846 23.5538 13.5328C22.7045 13.1811 21.7943 13 20.875 13Z" fill="#667085"/>
<path d="M23.927 18.6V17.6H22.7985L22.9343 18.7203L23.927 18.6ZM26.293 18.6L27.2631 18.3575L27.0738 17.6H26.293V18.6ZM22.688 25.292L21.8083 24.8165L20.589 27.0723L23.0135 26.2375L22.688 25.292ZM23.654 22.8V21.8H22.8778L22.6852 22.552L23.654 22.8ZM25.719 22.8L26.5838 23.3022L27.4561 21.8H25.719V22.8ZM22.513 21.4V22.4H23.3859L23.5038 21.5351L22.513 21.4ZM19.237 21.4L18.2483 21.5498L18.3771 22.4H19.237V21.4ZM19.237 18.6V17.6H18.3791L18.2486 18.4479L19.237 18.6ZM22.513 18.6L23.5035 18.4628L23.3841 17.6H22.513V18.6ZM20.875 25.572L20.0526 26.1409L20.875 27.3299L21.6974 26.1409L20.875 25.572ZM19.538 22.8V21.8H18.211L18.5767 23.0756L19.538 22.8ZM22.212 22.8L23.1733 23.0756L23.539 21.8H22.212V22.8ZM18.075 17.2V18.2H18.8335L19.038 17.4696L18.075 17.2ZM16.031 17.2L15.1634 16.7027L14.3052 18.2H16.031V17.2ZM19.055 14.708L19.9347 15.1835L21.148 12.939L18.7327 13.7614L19.055 14.708ZM16.031 22.8V21.8H14.2972L15.1654 23.3008L16.031 22.8ZM18.075 22.8L19.038 22.5304L18.8335 21.8H18.075V22.8ZM19.055 25.292L18.7289 26.2373L21.1552 27.0743L19.9347 24.8165L19.055 25.292ZM15.457 18.6V17.6H14.6762L14.4869 18.3575L15.457 18.6ZM17.823 18.6L18.8157 18.7203L18.9515 17.6H17.823V18.6ZM20.875 14.421L21.6974 13.8521L20.875 12.6631L20.0526 13.8521L20.875 14.421ZM22.212 17.2V18.2H23.539L23.1733 16.9244L22.212 17.2ZM19.538 17.2L18.5767 16.9244L18.211 18.2H19.538V17.2ZM25.719 17.2V18.2H27.4525L26.5847 16.6994L25.719 17.2ZM23.654 17.2L22.6845 17.445L22.8753 18.2H23.654V17.2ZM22.688 14.708L23.0119 13.7619L20.6043 12.9376L21.8067 15.1805L22.688 14.708ZM20.875 13V12V13ZM20.875 27V28V27ZM24.9197 21.5203C24.9779 21.0403 25.025 20.5335 25.025 20H23.025C23.025 20.4185 22.9881 20.8357 22.9343 21.2797L24.9197 21.5203ZM25.025 20C25.025 19.4665 24.9779 18.9597 24.9197 18.4797L22.9343 18.7203C22.9881 19.1643 23.025 19.5815 23.025 20H25.025ZM23.927 19.6H26.293V17.6H23.927V19.6ZM25.3229 18.8425C25.419 19.227 25.475 19.6135 25.475 20H27.475C27.475 19.4205 27.391 18.869 27.2631 18.3575L25.3229 18.8425ZM25.475 20C25.475 20.3865 25.419 20.773 25.3229 21.1575L27.2631 21.6425C27.391 21.131 27.475 20.5795 27.475 20H25.475ZM23.5677 25.7675C24.0292 24.9137 24.3799 23.9966 24.6228 23.048L22.6852 22.552C22.4801 23.3534 22.1868 24.1163 21.8083 24.8165L23.5677 25.7675ZM23.654 23.8H25.719V21.8H23.654V23.8ZM24.8542 22.2978C24.2967 23.2578 23.4122 23.9851 22.3625 24.3465L23.0135 26.2375C24.5176 25.7197 25.7849 24.6777 26.5838 23.3022L24.8542 22.2978ZM22.513 20.4H19.237V22.4H22.513V20.4ZM20.2257 21.2502C20.1617 20.8276 20.125 20.4165 20.125 20H18.125C18.125 20.5355 18.1723 21.0484 18.2483 21.5498L20.2257 21.2502ZM20.125 20C20.125 19.5825 20.1619 19.1648 20.2254 18.7521L18.2486 18.4479C18.1721 18.9452 18.125 19.4655 18.125 20H20.125ZM19.237 19.6H22.513V17.6H19.237V19.6ZM21.5224 18.7372C21.5827 19.1722 21.625 19.5899 21.625 20H23.625C23.625 19.4581 23.5693 18.9378 23.5035 18.4628L21.5224 18.7372ZM21.625 20C21.625 20.4095 21.5829 20.8199 21.5222 21.2649L23.5038 21.5351C23.5691 21.0561 23.625 20.5425 23.625 20H21.625ZM21.6974 25.0031C21.1691 24.2393 20.7521 23.4062 20.4993 22.5244L18.5767 23.0756C18.8979 24.1958 19.4189 25.2247 20.0526 26.1409L21.6974 25.0031ZM19.538 23.8H22.212V21.8H19.538V23.8ZM21.2507 22.5244C20.9979 23.4062 20.5809 24.2393 20.0526 25.0031L21.6974 26.1409C22.3311 25.2247 22.8521 24.1958 23.1733 23.0756L21.2507 22.5244ZM18.075 16.2H16.031V18.2H18.075V16.2ZM16.8986 17.6973C17.4488 16.7375 18.3301 16.0112 19.3773 15.6546L18.7327 13.7614C17.2247 14.2749 15.9556 15.3206 15.1634 16.7027L16.8986 17.6973ZM18.1753 14.2325C17.7118 15.0899 17.3718 16.0025 17.112 16.9304L19.038 17.4696C19.2682 16.6475 19.5582 15.8801 19.9347 15.1835L18.1753 14.2325ZM16.031 23.8H18.075V21.8H16.031V23.8ZM17.112 23.0696C17.3718 23.9975 17.7118 24.9101 18.1753 25.7675L19.9347 24.8165C19.5582 24.1199 19.2682 23.3525 19.038 22.5304L17.112 23.0696ZM19.3811 24.3467C18.3336 23.9853 17.4515 23.2584 16.8966 22.2992L15.1654 23.3008C15.9613 24.6764 17.2265 25.719 18.7289 26.2373L19.3811 24.3467ZM16.4271 21.1575C16.331 20.773 16.275 20.3865 16.275 20H14.275C14.275 20.5795 14.359 21.131 14.4869 21.6425L16.4271 21.1575ZM16.275 20C16.275 19.6135 16.331 19.227 16.4271 18.8425L14.4869 18.3575C14.359 18.869 14.275 19.4205 14.275 20H16.275ZM15.457 19.6H17.823V17.6H15.457V19.6ZM16.8303 18.4797C16.7721 18.9597 16.725 19.4665 16.725 20H18.725C18.725 19.5815 18.7619 19.1643 18.8157 18.7203L16.8303 18.4797ZM16.725 20C16.725 20.5335 16.7721 21.0403 16.8303 21.5203L18.8157 21.2797C18.7619 20.8357 18.725 20.4185 18.725 20H16.725ZM20.0526 14.9899C20.5796 15.7519 20.9974 16.592 21.2507 17.4756L23.1733 16.9244C22.8526 15.806 22.3324 14.7701 21.6974 13.8521L20.0526 14.9899ZM22.212 16.2H19.538V18.2H22.212V16.2ZM20.4993 17.4756C20.7526 16.592 21.1704 15.7519 21.6974 14.9899L20.0526 13.8521C19.4176 14.7701 18.8974 15.806 18.5767 16.9244L20.4993 17.4756ZM25.719 16.2H23.654V18.2H25.719V16.2ZM24.6235 16.955C24.3844 16.0089 24.0304 15.0956 23.5693 14.2355L21.8067 15.1805C22.1906 15.8967 22.4854 16.6572 22.6845 17.445L24.6235 16.955ZM22.3641 15.6541C23.4221 16.0163 24.3014 16.7462 24.8533 17.7006L26.5847 16.6994C25.7926 15.3298 24.5299 14.2817 23.0119 13.7619L22.3641 15.6541ZM20.875 12C16.4498 12 12.875 15.5997 12.875 20H14.875C14.875 16.7003 17.5582 14 20.875 14V12ZM12.875 20C12.875 22.1217 13.7179 24.1566 15.2181 25.6569L16.6324 24.2426C15.5071 23.1174 14.875 21.5913 14.875 20H12.875ZM15.2181 25.6569C15.961 26.3997 16.8429 26.989 17.8135 27.391L18.5789 25.5433C17.8509 25.2417 17.1895 24.7998 16.6324 24.2426L15.2181 25.6569ZM17.8135 27.391C18.7841 27.7931 19.8244 28 20.875 28V26C20.0871 26 19.3069 25.8448 18.5789 25.5433L17.8135 27.391ZM20.875 28C22.9967 28 25.0316 27.1571 26.5319 25.6569L25.1176 24.2426C23.9924 25.3679 22.4663 26 20.875 26V28ZM26.5319 25.6569C28.0321 24.1566 28.875 22.1217 28.875 20H26.875C26.875 21.5913 26.2429 23.1174 25.1176 24.2426L26.5319 25.6569ZM28.875 20C28.875 18.9494 28.6681 17.9091 28.266 16.9385L26.4183 17.7039C26.7198 18.4319 26.875 19.2121 26.875 20H28.875ZM28.266 16.9385C27.864 15.9679 27.2747 15.086 26.5319 14.3431L25.1176 15.7574C25.6748 16.3145 26.1167 16.9759 26.4183 17.7039L28.266 16.9385ZM26.5319 14.3431C25.789 13.6003 24.9071 13.011 23.9365 12.609L23.1711 14.4567C23.8991 14.7583 24.5605 15.2002 25.1176 15.7574L26.5319 14.3431ZM23.9365 12.609C22.9659 12.2069 21.9256 12 20.875 12V14C21.6629 14 22.4431 14.1552 23.1711 14.4567L23.9365 12.609Z" fill="white" mask="url(#path-2-inside-1_1_781)"/>
</svg>
