<svg width="36" height="38" viewBox="0 0 36 38" fill="none" xmlns="http://www.w3.org/2000/svg">
<g clip-path="url(#clip0_96_1961)">
<path d="M35.9826 19.3554C35.9826 17.7986 35.8602 16.6625 35.5951 15.4844H18.3584V22.5112H28.4759C28.272 24.2574 27.1705 26.8873 24.7227 28.6544L24.6884 28.8897L30.1383 33.2442L30.5159 33.283C33.9835 29.9799 35.9826 25.12 35.9826 19.3554Z" fill="#4285F4"/>
<path d="M18.3584 37.8694C23.3151 37.8694 27.4764 36.1862 30.5159 33.283L24.7227 28.6544C23.1724 29.7695 21.0917 30.5479 18.3584 30.5479C13.5036 30.5479 9.38315 27.2449 7.91432 22.6796L7.69902 22.6984L2.03212 27.2217L1.95801 27.4342C4.97695 33.6195 11.1781 37.8694 18.3584 37.8694Z" fill="#34A853"/>
<path d="M7.91452 22.6797C7.52695 21.5015 7.30266 20.2391 7.30266 18.9348C7.30266 17.6303 7.52695 16.368 7.89412 15.1899L7.88386 14.939L2.14594 10.343L1.9582 10.4351C0.713953 13.0019 0 15.8842 0 18.9348C0 21.9854 0.713953 24.8676 1.9582 27.4343L7.91452 22.6797Z" fill="#FBBC05"/>
<path d="M18.3584 7.32138C21.8057 7.32138 24.1311 8.85719 25.457 10.1406L30.6382 4.92303C27.4561 1.87244 23.3151 0 18.3584 0C11.1781 0 4.97695 4.24976 1.95801 10.4351L7.89393 15.1898C9.38315 10.6245 13.5036 7.32138 18.3584 7.32138Z" fill="#EB4335"/>
</g>
<defs>
<clipPath id="clip0_96_1961">
<rect width="36" height="38" fill="white"/>
</clipPath>
</defs>
</svg>
