<svg width="13" height="8" viewBox="0 0 13 8" fill="none" xmlns="http://www.w3.org/2000/svg">
<path d="M2.2379 7.7903L2.33211 7.70711L4.625 5.415L5.91789 6.70711C6.27838 7.06759 6.84561 7.09532 7.2379 6.7903L7.33211 6.70711L10.125 3.915L10.9179 4.70711C11.5205 5.30968 12.5322 4.92767 12.619 4.11363L12.625 4L12.6233 0.940615L12.6143 0.85305L12.5893 0.73416L12.5651 0.658334L12.5313 0.576778L12.479 0.479291L12.4121 0.382978L12.3321 0.292859C12.2967 0.257499 12.2593 0.225313 12.2203 0.196335L12.1091 0.124671L11.9963 0.0712255L11.891 0.0358451L11.7735 0.0110178L11.7142 0.00396641L11.625 0H8.625C7.77283 0 7.32757 0.985514 7.84177 1.62253L7.91789 1.70711L8.71 2.5L6.625 4.585L5.33211 3.29289C4.97162 2.93241 4.40439 2.90468 4.0121 3.2097L3.91789 3.29289L0.917893 6.29289C0.527369 6.68342 0.527369 7.31658 0.917893 7.70711C1.27838 8.06759 1.84561 8.09532 2.2379 7.7903Z" fill="#1E9268"/>
</svg>
