<svg width="18" height="18" viewBox="0 0 18 18" fill="none" xmlns="http://www.w3.org/2000/svg">
<path d="M6.57484 6.50002C6.77076 5.94308 7.15746 5.47344 7.66647 5.1743C8.17547 4.87515 8.77392 4.7658 9.35582 4.86561C9.93772 4.96543 10.4655 5.26796 10.8457 5.71963C11.226 6.1713 11.4341 6.74296 11.4332 7.33335C11.4332 9.00002 8.93317 9.83335 8.93317 9.83335M8.99984 13.1667H9.00817M17.3332 9.00002C17.3332 13.6024 13.6022 17.3334 8.99984 17.3334C4.39746 17.3334 0.666504 13.6024 0.666504 9.00002C0.666504 4.39765 4.39746 0.666687 8.99984 0.666687C13.6022 0.666687 17.3332 4.39765 17.3332 9.00002Z" stroke="#667085" stroke-width="1.33333" stroke-linecap="round" stroke-linejoin="round"/>
</svg>
