<svg width="20" height="18" viewBox="0 0 20 18" fill="none" xmlns="http://www.w3.org/2000/svg">
<path d="M19.8134 8.64808L15.573 0.581526C15.512 0.465797 15.422 0.369292 15.3126 0.302181C15.2031 0.23507 15.0783 0.199838 14.9511 0.200198H5.05702C4.92989 0.199838 4.80502 0.23507 4.69556 0.302181C4.58611 0.369292 4.49613 0.465797 4.43511 0.581526L0.19478 8.64808C0.132752 8.75956 0.100098 8.88602 0.100098 9.01474C0.100098 9.14347 0.132752 9.26993 0.19478 9.3814L4.43511 17.448C4.49975 17.5582 4.59129 17.6488 4.70049 17.7107C4.80969 17.7725 4.93268 17.8033 5.05702 17.8H14.9511C15.0783 17.8003 15.2031 17.7651 15.3126 17.698C15.422 17.6309 15.512 17.5344 15.573 17.4186L19.8134 9.35207C19.8703 9.24415 19.9001 9.1231 19.9001 9.00008C19.9001 8.87705 19.8703 8.75601 19.8134 8.64808ZM14.9016 2.40017L18.0042 8.26675H11.2903L14.9016 2.40017ZM10.0041 7.6361L6.34325 1.66684H13.6649L10.0041 7.6361ZM5.10649 2.40017L8.71784 8.26675H2.00399L5.10649 2.40017ZM2.00399 9.7334H8.71784L5.10649 15.6L2.00399 9.7334ZM10.0041 10.3641L13.6649 16.3333H6.34325L10.0041 10.3641ZM14.9016 15.6L11.2903 9.7334H18.0042L14.9016 15.6Z" fill="#667085"/>
</svg>
