<svg width="21" height="16" viewBox="0 0 21 16" fill="none" xmlns="http://www.w3.org/2000/svg">
<path d="M12.3822 6.11291V4.52447C12.8997 4.30645 13.4291 4.14294 13.9705 4.03393C14.5118 3.92492 15.0801 3.87041 15.6754 3.87041C16.0831 3.87041 16.483 3.90156 16.875 3.96385C17.2671 4.02614 17.6513 4.104 18.0277 4.19744V5.69244C17.6513 5.55228 17.2709 5.44701 16.8863 5.37662C16.5018 5.30623 16.0982 5.27135 15.6754 5.27197C15.0795 5.27197 14.5071 5.3461 13.9582 5.49435C13.4094 5.64261 12.884 5.84879 12.3822 6.11291ZM12.3822 11.252V9.66353C12.8997 9.44551 13.4291 9.282 13.9705 9.17299C14.5118 9.06398 15.0801 9.00947 15.6754 9.00947C16.0831 9.00947 16.483 9.04062 16.875 9.10291C17.2671 9.1652 17.6513 9.24307 18.0277 9.3365V10.8315C17.6513 10.6913 17.2709 10.5861 16.8863 10.5157C16.5018 10.4453 16.0982 10.4104 15.6754 10.411C15.0795 10.411 14.5071 10.4811 13.9582 10.6213C13.4094 10.7614 12.884 10.9717 12.3822 11.252ZM12.3822 8.68244V7.094C12.8997 6.87598 13.4291 6.71247 13.9705 6.60346C14.5118 6.49445 15.0801 6.43994 15.6754 6.43994C16.0831 6.43994 16.483 6.47109 16.875 6.53338C17.2671 6.59567 17.6513 6.67353 18.0277 6.76697V8.26197C17.6513 8.12182 17.2709 8.01654 16.8863 7.94615C16.5018 7.87576 16.0982 7.84088 15.6754 7.8415C15.0795 7.8415 14.5071 7.91563 13.9582 8.06388C13.4094 8.21214 12.884 8.41832 12.3822 8.68244ZM5.32539 11.8126C6.06243 11.8126 6.78003 11.8945 7.47819 12.0583C8.17634 12.2222 8.87011 12.4673 9.55948 12.7937V3.5901C8.91652 3.21635 8.23437 2.93604 7.513 2.74916C6.79164 2.56229 6.06243 2.46885 5.32539 2.46885C4.76084 2.46885 4.20006 2.52335 3.64304 2.63236C3.08603 2.74137 2.54908 2.90489 2.03221 3.12291V12.3732C2.58107 12.1863 3.12617 12.0462 3.66751 11.9528C4.20884 11.8593 4.76147 11.8126 5.32539 11.8126ZM11.4413 12.7937C12.1313 12.4667 12.8251 12.2212 13.5226 12.0574C14.2201 11.8936 14.9377 11.812 15.6754 11.8126C16.2399 11.8126 16.7929 11.8593 17.3342 11.9528C17.8755 12.0462 18.4203 12.1863 18.9686 12.3732V3.12291C18.4511 2.90489 17.9138 2.74137 17.3568 2.63236C16.7998 2.52335 16.2393 2.46885 15.6754 2.46885C14.9383 2.46885 14.2091 2.56229 13.4878 2.74916C12.7664 2.93604 12.0843 3.21635 11.4413 3.5901V12.7937ZM10.5004 15.5501C9.74766 14.9583 8.93221 14.4989 8.05402 14.1719C7.17584 13.8449 6.2663 13.6813 5.32539 13.6813C4.66675 13.6813 4.01972 13.767 3.38429 13.9383C2.74887 14.1096 2.14135 14.351 1.56175 14.6624C1.23244 14.8337 0.915036 14.826 0.609554 14.6391C0.304072 14.4522 0.151018 14.1797 0.150391 13.8215V2.56228C0.150391 2.39098 0.193672 2.22747 0.280236 2.07174C0.3668 1.91601 0.496018 1.79921 0.66789 1.72135C1.38925 1.3476 2.14198 1.06729 2.92607 0.88041C3.71016 0.693535 4.50993 0.600098 5.32539 0.600098C6.23493 0.600098 7.12503 0.716895 7.99569 0.950488C8.86634 1.18408 9.70124 1.53447 10.5004 2.00166C11.3002 1.53447 12.1354 1.18408 13.006 0.950488C13.8767 0.716895 14.7665 0.600098 15.6754 0.600098C16.4908 0.600098 17.2906 0.693535 18.0747 0.88041C18.8588 1.06729 19.6115 1.3476 20.3329 1.72135C20.5054 1.79921 20.6349 1.91601 20.7215 2.07174C20.808 2.22747 20.851 2.39098 20.8504 2.56228V13.8215C20.8504 14.1797 20.6976 14.4522 20.3922 14.6391C20.0867 14.826 19.769 14.8337 19.439 14.6624C18.8588 14.351 18.2513 14.1096 17.6165 13.9383C16.9817 13.767 16.3346 13.6813 15.6754 13.6813C14.7345 13.6813 13.8249 13.8449 12.9468 14.1719C12.0686 14.4989 11.2531 14.9583 10.5004 15.5501Z" fill="#7F56D9"/>
</svg>
