<svg width="41" height="40" viewBox="0 0 41 40" fill="none" xmlns="http://www.w3.org/2000/svg">
<g clip-path="url(#clip0_1_792)">
<path d="M20.75 0C9.48344 0 0.75 8.25281 0.75 19.4C0.75 25.2308 3.13953 30.2691 7.03125 33.7492C7.35781 34.0416 7.555 34.4512 7.56844 34.8895L7.67734 38.4473C7.71219 39.582 8.88422 40.3205 9.92266 39.862L13.8923 38.1094C14.2288 37.961 14.6061 37.9334 14.9606 38.0311C16.7848 38.5327 18.7262 38.7998 20.75 38.7998C32.0166 38.7998 40.75 30.547 40.75 19.3998C40.75 8.25266 32.0166 0 20.75 0Z" fill="url(#paint0_radial_1_792)"/>
<path d="M8.74014 25.0735L14.6151 15.7527C15.5495 14.2699 17.5508 13.9007 18.953 14.9523L23.6256 18.457C23.8343 18.6135 24.0883 18.6977 24.3491 18.697C24.61 18.6962 24.8635 18.6105 25.0712 18.4527L31.3819 13.6634C32.224 13.0242 33.3237 14.0321 32.76 14.9267L26.885 24.2476C25.9505 25.7303 23.949 26.0995 22.547 25.0479L17.8742 21.5432C17.6656 21.3868 17.4116 21.3026 17.1508 21.3033C16.8901 21.3041 16.6366 21.3898 16.4289 21.5474L10.118 26.3368C9.27577 26.9759 8.17624 25.9681 8.74014 25.0735Z" fill="white"/>
</g>
<defs>
<radialGradient id="paint0_radial_1_792" cx="0" cy="0" r="1" gradientUnits="userSpaceOnUse" gradientTransform="translate(770.63 3978.6) scale(4358.4 4358.4)">
<stop stop-color="#0099FF"/>
<stop offset="0.60975" stop-color="#A033FF"/>
<stop offset="0.93482" stop-color="#FF5280"/>
<stop offset="1" stop-color="#FF7061"/>
</radialGradient>
<clipPath id="clip0_1_792">
<rect width="40" height="40" fill="white" transform="translate(0.75)"/>
</clipPath>
</defs>
</svg>
