<svg width="15" height="18" viewBox="0 0 15 18" fill="none" xmlns="http://www.w3.org/2000/svg">
<path d="M7.25985 17C8.0819 17 8.89591 16.8381 9.65539 16.5235C10.4149 16.2089 11.1049 15.7478 11.6862 15.1665C12.2675 14.5853 12.7286 13.8952 13.0432 13.1357C13.3578 12.3762 13.5197 11.5622 13.5197 10.7402V7.25968C13.5198 5.72186 12.9538 4.23783 11.9297 3.09062M1 8.64936V10.7402C0.999581 11.9725 1.36289 13.1775 2.04439 14.2042C2.72589 15.2309 3.69527 16.0336 4.83103 16.5117M10.3898 1.83865C8.95202 1.00858 7.24341 0.783632 5.63981 1.21329C4.0362 1.64296 2.66895 2.69203 1.83882 4.12975C1.497 4.72009 1.25583 5.36321 1.1252 6.03275" stroke="#667085" stroke-width="1.5" stroke-linecap="round" stroke-linejoin="round"/>
<path d="M6.60869 4.63055C7.06916 4.53495 7.54522 4.54393 8.00176 4.65681C8.4583 4.7697 8.88368 4.98362 9.24654 5.2828C9.6094 5.58197 9.90048 5.95878 10.0983 6.38543C10.2962 6.81208 10.3957 7.2777 10.3896 7.74795V9.76362M9.58838 12.3928C9.1624 12.8673 8.60166 13.2003 7.98119 13.3474C7.36072 13.4945 6.71014 13.4485 6.11651 13.2157C5.52288 12.9829 5.01452 12.5743 4.65947 12.0446C4.30442 11.5149 4.11962 10.8895 4.12979 10.2519V7.74795C4.12741 7.31796 4.21261 6.89198 4.38019 6.49598M7.25972 7.88567V9.97646" stroke="#667085" stroke-width="1.5" stroke-linecap="round" stroke-linejoin="round"/>
</svg>
