<svg width="14" height="14" viewBox="0 0 14 14" fill="none" xmlns="http://www.w3.org/2000/svg">
<path d="M7 0.5C6.13805 0.5 5.3114 0.84241 4.7019 1.4519C4.09241 2.0614 3.75 2.88805 3.75 3.75C3.75 4.61195 4.09241 5.4386 4.7019 6.0481C5.3114 6.65759 6.13805 7 7 7C7.86195 7 8.6886 6.65759 9.2981 6.0481C9.90759 5.4386 10.25 4.61195 10.25 3.75C10.25 2.88805 9.90759 2.0614 9.2981 1.4519C8.6886 0.84241 7.86195 0.5 7 0.5ZM7 5.45625C6.54747 5.45625 6.11348 5.27648 5.7935 4.9565C5.47352 4.63652 5.29375 4.20253 5.29375 3.75C5.29375 3.29747 5.47352 2.86348 5.7935 2.5435C6.11348 2.22352 6.54747 2.04375 7 2.04375C7.22407 2.04375 7.44594 2.08788 7.65295 2.17363C7.85996 2.25938 8.04806 2.38506 8.2065 2.5435C8.36494 2.70194 8.49062 2.89003 8.57637 3.09705C8.66212 3.30406 8.70625 3.52593 8.70625 3.75C8.70625 3.97407 8.66212 4.19594 8.57637 4.40295C8.49062 4.60997 8.36494 4.79806 8.2065 4.9565C8.04806 5.11494 7.85996 5.24062 7.65295 5.32637C7.44594 5.41212 7.22407 5.45625 7 5.45625ZM7 7.8125C4.83063 7.8125 0.5 8.89312 0.5 11.0625V13.5H13.5V11.0625C13.5 8.89312 9.16938 7.8125 7 7.8125ZM11.9563 11.9563H2.04375V11.0625C2.04375 10.5425 4.5625 9.35625 7 9.35625C9.41313 9.35625 11.9563 10.5425 11.9563 11.0625V11.9563Z" fill="#667085"/>
</svg>
