<svg width="41" height="40" viewBox="0 0 41 40" fill="none" xmlns="http://www.w3.org/2000/svg">
<rect x="0.625" width="40" height="40" rx="20" fill="#7F56D9"/>
<path d="M23.8738 21.0221L23.8737 21.0223C23.3289 21.5667 22.5967 21.8824 21.8269 21.9047C21.057 21.927 20.3078 21.6542 19.7324 21.1422M23.8738 21.0221L26.0383 19.8177L24.3507 21.5046L24.3506 21.5048C23.6836 22.1721 22.7868 22.5593 21.8437 22.5872C20.9006 22.615 19.9826 22.2814 19.2774 21.6546L18.9452 22.0283L19.2774 21.6546C19.2438 21.6247 19.2163 21.5885 19.1967 21.548C19.1771 21.5075 19.1656 21.4635 19.163 21.4186C19.1603 21.3737 19.1666 21.3287 19.1813 21.2862C19.1961 21.2437 19.219 21.2045 19.2489 21.1709L18.8752 20.8387L19.2489 21.1709C19.2788 21.1372 19.315 21.1098 19.3555 21.0902C19.396 21.0706 19.44 21.0591 19.4849 21.0565C19.5298 21.0538 19.5748 21.0601 19.6173 21.0748C19.6597 21.0895 19.6988 21.1124 19.7324 21.1422M23.8738 21.0221L25.5609 19.3344C25.5609 19.3344 25.5609 19.3343 25.561 19.3343C26.1272 18.768 26.4453 18 26.4453 17.1992C26.4453 16.3984 26.1272 15.6304 25.5609 15.0641C24.9946 14.4978 24.2266 14.1797 23.4258 14.1797C22.6249 14.1797 21.8569 14.4978 21.2906 15.0641L20.875 15.4798C20.811 15.5437 20.7242 15.5797 20.6337 15.5797C20.5432 15.5797 20.4565 15.5437 20.3925 15.4798C20.3285 15.4158 20.2926 15.329 20.2926 15.2385C20.2926 15.148 20.3285 15.0613 20.3925 14.9973L20.8077 14.582C20.8078 14.582 20.8078 14.582 20.8078 14.5819C21.5024 13.8891 22.4433 13.5 23.4244 13.5C24.3796 13.5 25.2969 13.8689 25.9856 14.5279L26.0402 14.5826M23.8738 21.0221L26.0402 14.5826M19.7324 21.1422L20.0648 20.7687L19.7326 21.1424C19.7326 21.1424 19.7325 21.1423 19.7324 21.1422ZM26.0402 14.5826C26.7334 15.2775 27.1225 16.219 27.1222 17.2006C27.1219 18.182 26.7321 19.1231 26.0385 19.8175L26.0402 14.5826ZM20.8566 24.518L20.8574 24.5188C20.8891 24.5504 20.9142 24.5879 20.9313 24.6292C20.9485 24.6704 20.9573 24.7147 20.9573 24.7594C20.9573 24.8041 20.9485 24.8484 20.9313 24.8897C20.9142 24.931 20.8891 24.9685 20.8574 25.0001L20.8568 25.0007L20.4411 25.4163C19.7472 26.1102 18.8062 26.5 17.8249 26.5C16.8436 26.5 15.9025 26.1102 15.2087 25.4163C14.5148 24.7225 14.125 23.7814 14.125 22.8001C14.125 21.8189 14.5148 20.8778 15.2086 20.184C15.2086 20.1839 15.2086 20.1839 15.2087 20.1839L16.8964 18.4968L16.8969 18.4963C17.5636 17.828 18.4605 17.4399 19.4041 17.4115C20.3476 17.3831 21.2663 17.7165 21.9719 18.3435C22.0055 18.3733 22.0329 18.4095 22.0525 18.45C22.0722 18.4905 22.0836 18.5344 22.0863 18.5793C22.0889 18.6243 22.0827 18.6693 22.0679 18.7118C22.0532 18.7543 22.0302 18.7935 22.0003 18.8271C21.9704 18.8607 21.9342 18.8881 21.8937 18.9078C21.8532 18.9274 21.8093 18.9388 21.7644 18.9415C21.7194 18.9441 21.6744 18.9379 21.6319 18.9232C21.5894 18.9084 21.5502 18.8854 21.5166 18.8555L21.5165 18.8554C20.9407 18.3441 20.1914 18.0721 19.4218 18.095C18.6523 18.1179 17.9206 18.4339 17.3763 18.9784C17.3763 18.9784 17.3762 18.9785 17.3762 18.9785C17.3762 18.9786 17.3761 18.9786 17.3761 18.9787L15.6899 20.6634L15.6898 20.6636C15.1235 21.2298 14.8054 21.9979 14.8054 22.7987C14.8054 23.5995 15.1235 24.3676 15.6898 24.9338C16.256 25.5001 17.0241 25.8182 17.8249 25.8182C18.6257 25.8182 19.3938 25.5001 19.96 24.9338L20.3757 24.5182L20.3759 24.518C20.4074 24.4864 20.4449 24.4614 20.4861 24.4443C20.5274 24.4272 20.5716 24.4184 20.6162 24.4184C20.6609 24.4184 20.7051 24.4272 20.7463 24.4443C20.7876 24.4614 20.825 24.4864 20.8566 24.518ZM21.3931 25.0814C21.3507 25.1835 21.2886 25.2762 21.2103 25.3542L20.2947 23.9824C20.3966 23.9401 20.5059 23.9184 20.6162 23.9184C20.7266 23.9184 20.8358 23.9401 20.9378 23.9824C21.0397 24.0246 21.1323 24.0866 21.2103 24.1646C21.2886 24.2426 21.3507 24.3353 21.3931 24.4374C21.4355 24.5395 21.4573 24.6489 21.4573 24.7594C21.4573 24.8699 21.4355 24.9794 21.3931 25.0814Z" fill="#667085" stroke="white"/>
</svg>
