<svg width="14" height="15" viewBox="0 0 14 15" fill="none" xmlns="http://www.w3.org/2000/svg">
<path d="M11.7083 2.79134C11.0916 2.17038 10.358 1.67764 9.54993 1.34153C8.74184 1.00543 7.87521 0.832596 7.00001 0.833009C3.31667 0.833009 0.341675 3.81634 0.341675 7.49968C0.341675 11.183 3.31667 14.1663 7.00001 14.1663C10.1083 14.1663 12.7 12.0413 13.4417 9.16634H11.7083C11.3651 10.1409 10.7278 10.985 9.88446 11.582C9.04113 12.1791 8.03329 12.4997 7.00001 12.4997C4.24167 12.4997 2.00001 10.258 2.00001 7.49968C2.00001 4.74134 4.24167 2.49968 7.00001 2.49968C8.38334 2.49968 9.61667 3.07468 10.5167 3.98301L7.83334 6.66634H13.6667V0.833009L11.7083 2.79134Z" fill="#667085"/>
</svg>
