<svg width="38" height="38" viewBox="0 0 38 38" fill="none" xmlns="http://www.w3.org/2000/svg">
<path d="M19 0H38V4.75L35.625 7.125L38 9.5V14.25L35.625 16.625L38 19V23.75L35.625 26.125L38 28.5V33.25L19 35.625L0 33.25V28.5L2.375 26.125L0 23.75V19L19 0Z" fill="#EEEEEE"/>
<path d="M16.625 4.75H38V9.5H16.625V4.75ZM16.625 14.25H38V19H19L16.625 14.25ZM0 23.75H38V28.5H0V23.75ZM0 33.25H38V38H0V33.25Z" fill="#D80027"/>
<path d="M0 0H19V19H0V0Z" fill="#0052B4"/>
<path d="M13.8789 18.0352L18.1094 14.9922H12.9141L17.1445 18.0352L15.5117 13.0625L13.8789 18.0352ZM7.86719 18.0352L12.0977 14.9922H6.90234L11.1328 18.0352L9.5 13.0625L7.86719 18.0352ZM1.85547 18.0352L6.08594 14.9922H0.890625L5.12109 18.0352L3.48828 13.0625L1.85547 18.0352ZM13.8789 12.0234L18.1094 8.98047H12.9141L17.1445 12.0234L15.5117 7.05078L13.8789 12.0234ZM7.86719 12.0234L12.0977 8.98047H6.90234L11.1328 12.0234L9.5 7.05078L7.86719 12.0234ZM1.85547 12.0234L6.08594 8.98047H0.890625L5.12109 12.0234L3.48828 7.05078L1.85547 12.0234ZM13.8789 5.9375L18.1094 2.89453H12.9141L17.1445 5.9375L15.5117 0.964844L13.8789 5.9375ZM7.86719 5.9375L12.0977 2.89453H6.90234L11.1328 5.9375L9.5 0.964844L7.86719 5.9375ZM1.85547 5.9375L6.08594 2.89453H0.890625L5.12109 5.9375L3.48828 0.964844L1.85547 5.9375Z" fill="#EEEEEE"/>
</svg>
