<svg width="19" height="18" viewBox="0 0 19 18" fill="none" xmlns="http://www.w3.org/2000/svg">
<path d="M6.2541 17.0961L5.03162 15.0617L2.71311 14.5635C2.50234 14.522 2.33372 14.4146 2.20726 14.2413C2.0808 14.068 2.03162 13.8779 2.05972 13.6708L2.29157 11.325L0.710773 9.53974C0.570258 9.38751 0.5 9.20759 0.5 9C0.5 8.79241 0.570258 8.61249 0.710773 8.46026L2.29157 6.67496L2.05972 4.32915C2.03162 4.12156 2.0808 3.93113 2.20726 3.75786C2.33372 3.58459 2.50234 3.47747 2.71311 3.4365L5.03162 2.93828L6.2541 0.903866C6.36651 0.723952 6.52108 0.602718 6.7178 0.540163C6.91452 0.477608 7.11124 0.488126 7.30796 0.571717L9.5 1.48513L11.692 0.571717C11.8888 0.48868 12.0855 0.478162 12.2822 0.540163C12.4789 0.602164 12.6335 0.723399 12.7459 0.903866L13.9684 2.93828L16.2869 3.4365C16.4977 3.47802 16.6663 3.58542 16.7927 3.75869C16.9192 3.93196 16.9684 4.12211 16.9403 4.32915L16.7084 6.67496L18.2892 8.46026C18.4297 8.61249 18.5 8.79241 18.5 9C18.5 9.20759 18.4297 9.38751 18.2892 9.53974L16.7084 11.325L16.9403 13.6708C16.9684 13.8784 16.9192 14.0689 16.7927 14.2421C16.6663 14.4154 16.4977 14.5225 16.2869 14.5635L13.9684 15.0617L12.7459 17.0961C12.6335 17.276 12.4789 17.3973 12.2822 17.4598C12.0855 17.5224 11.8888 17.5119 11.692 17.4283L9.5 16.5149L7.30796 17.4283C7.11124 17.5113 6.91452 17.5218 6.7178 17.4598C6.52108 17.3978 6.36651 17.2766 6.2541 17.0961ZM7.35012 15.6015L9.5 14.6881L11.692 15.6015L12.8724 13.6086L15.1909 13.0688L14.9801 10.7438L16.5398 9L14.9801 7.2147L15.1909 4.88966L12.8724 4.39143L11.6499 2.39854L9.5 3.31195L7.30796 2.39854L6.12764 4.39143L3.80913 4.88966L4.01991 7.2147L2.46019 9L4.01991 10.7438L3.80913 13.1103L6.12764 13.6086L7.35012 15.6015ZM9.5 13.1519C9.73888 13.1519 9.93925 13.0721 10.1011 12.9127C10.263 12.7533 10.3437 12.5562 10.3431 12.3215C10.3431 12.0862 10.2622 11.8889 10.1003 11.7294C9.93841 11.57 9.73831 11.4906 9.5 11.4911C9.26112 11.4911 9.06075 11.5708 8.89888 11.7303C8.737 11.8897 8.65635 12.0868 8.65691 12.3215C8.65691 12.5568 8.73785 12.7541 8.89972 12.9135C9.06159 13.073 9.26169 13.1524 9.5 13.1519ZM9.5 9.83037C9.73888 9.83037 9.93925 9.75066 10.1011 9.59122C10.263 9.43179 10.3437 9.23472 10.3431 9V5.67851C10.3431 5.44324 10.2622 5.24588 10.1003 5.08645C9.93841 4.92702 9.73831 4.84758 9.5 4.84814C9.26112 4.84814 9.06075 4.92785 8.89888 5.08728C8.737 5.24672 8.65635 5.44379 8.65691 5.67851V9C8.65691 9.23527 8.73785 9.43262 8.89972 9.59206C9.06159 9.75149 9.26169 9.83093 9.5 9.83037Z" fill="#667085"/>
</svg>
