<svg width="14" height="15" viewBox="0 0 14 15" fill="none" xmlns="http://www.w3.org/2000/svg">
<path d="M0.5 14L2.5 12L0.5 14ZM4.71 12.79C4.61704 12.8837 4.50644 12.9581 4.38458 13.0089C4.26272 13.0596 4.13201 13.0858 4 13.0858C3.86799 13.0858 3.73728 13.0596 3.61542 13.0089C3.49356 12.9581 3.38296 12.8837 3.29 12.79L1.71 11.21C1.61627 11.117 1.54188 11.0064 1.49111 10.8846C1.44034 10.7627 1.4142 10.632 1.4142 10.5C1.4142 10.368 1.44034 10.2373 1.49111 10.1154C1.54188 9.99354 1.61627 9.88294 1.71 9.78998L9.88 1.61998C10.2778 1.22215 10.8174 0.998657 11.38 0.998657C11.6586 0.998657 11.9344 1.05353 12.1918 1.16013C12.4492 1.26674 12.683 1.42299 12.88 1.61998C13.077 1.81696 13.2332 2.05081 13.3398 2.30818C13.4465 2.56555 13.5013 2.8414 13.5013 3.11998C13.5013 3.39855 13.4465 3.6744 13.3398 3.93177C13.2332 4.18914 13.077 4.42299 12.88 4.61998L4.71 12.79Z" fill="white"/>
<path d="M0.5 14L2.5 12M4.71 12.79C4.61704 12.8837 4.50644 12.9581 4.38458 13.0089C4.26272 13.0596 4.13201 13.0858 4 13.0858C3.86799 13.0858 3.73728 13.0596 3.61542 13.0089C3.49356 12.9581 3.38296 12.8837 3.29 12.79L1.71 11.21C1.61627 11.117 1.54188 11.0064 1.49111 10.8846C1.44034 10.7627 1.4142 10.632 1.4142 10.5C1.4142 10.368 1.44034 10.2373 1.49111 10.1154C1.54188 9.99354 1.61627 9.88294 1.71 9.78998L9.88 1.61998C10.2778 1.22215 10.8174 0.998657 11.38 0.998657C11.6586 0.998657 11.9344 1.05353 12.1918 1.16013C12.4492 1.26674 12.683 1.42299 12.88 1.61998C13.077 1.81696 13.2332 2.05081 13.3398 2.30818C13.4465 2.56555 13.5013 2.8414 13.5013 3.11998C13.5013 3.39855 13.4465 3.6744 13.3398 3.93177C13.2332 4.18914 13.077 4.42299 12.88 4.61998L4.71 12.79Z" stroke="#667085" stroke-width="1.2" stroke-linecap="round" stroke-linejoin="round"/>
<path d="M11.5 5.99998L7.21 1.70998C7.11704 1.61625 7.00644 1.54186 6.88458 1.49109C6.76272 1.44032 6.63201 1.41418 6.5 1.41418C6.36799 1.41418 6.23728 1.44032 6.11542 1.49109C5.99356 1.54186 5.88296 1.61625 5.79 1.70998L2.5 4.99998" fill="white"/>
<path d="M11.5 5.99998L7.21 1.70998C7.11704 1.61625 7.00644 1.54186 6.88458 1.49109C6.76272 1.44032 6.63201 1.41418 6.5 1.41418C6.36799 1.41418 6.23728 1.44032 6.11542 1.49109C5.99356 1.54186 5.88296 1.61625 5.79 1.70998L2.5 4.99998" stroke="#667085" stroke-width="1.2" stroke-linecap="round" stroke-linejoin="round"/>
</svg>
