<svg width="14" height="16" viewBox="0 0 14 16" fill="none" xmlns="http://www.w3.org/2000/svg">
<path d="M2.625 9.625C3.52246 9.625 4.25 8.89746 4.25 8C4.25 7.10254 3.52246 6.375 2.625 6.375C1.72754 6.375 1 7.10254 1 8C1 8.89746 1.72754 9.625 2.625 9.625Z" stroke="#667085" stroke-width="1.2" stroke-linecap="round" stroke-linejoin="round"/>
<path d="M11.2916 4.75C12.1891 4.75 12.9166 4.02246 12.9166 3.125C12.9166 2.22754 12.1891 1.5 11.2916 1.5C10.3942 1.5 9.66663 2.22754 9.66663 3.125C9.66663 4.02246 10.3942 4.75 11.2916 4.75Z" stroke="#667085" stroke-width="1.2" stroke-linecap="round" stroke-linejoin="round"/>
<path d="M11.2916 14.5C12.1891 14.5 12.9166 13.7725 12.9166 12.875C12.9166 11.9775 12.1891 11.25 11.2916 11.25C10.3942 11.25 9.66663 11.9775 9.66663 12.875C9.66663 13.7725 10.3942 14.5 11.2916 14.5Z" stroke="#667085" stroke-width="1.2" stroke-linecap="round" stroke-linejoin="round"/>
<path d="M4.04102 8.79657L9.87544 12.0784M9.87544 3.92157L4.04102 7.20339" stroke="#667085" stroke-width="1.2" stroke-linecap="round" stroke-linejoin="round"/>
</svg>
