<svg width="50" height="20" viewBox="0 0 50 20" fill="none" xmlns="http://www.w3.org/2000/svg">
<g clip-path="url(#clip0_97_3000)">
<path fill-rule="evenodd" clip-rule="evenodd" d="M50.0659 10.3335C50.0659 6.91563 48.3414 4.21875 45.0454 4.21875C41.7355 4.21875 39.7329 6.91563 39.7329 10.3068C39.7329 14.3254 42.0971 16.3547 45.4904 16.3547C47.1454 16.3547 48.3971 15.9942 49.3427 15.4869V12.8167C48.3971 13.2707 47.3123 13.551 45.9355 13.551C44.5864 13.551 43.3904 13.0971 43.2375 11.5217H50.0381C50.0381 11.3481 50.0659 10.6539 50.0659 10.3335ZM43.1957 9.06512C43.1957 7.55647 44.1553 6.92898 45.0315 6.92898C45.8798 6.92898 46.7838 7.55647 46.7838 9.06512H43.1957Z" fill="#767676"/>
<path fill-rule="evenodd" clip-rule="evenodd" d="M34.3646 4.21875C33.0017 4.21875 32.1255 4.83289 31.6389 5.26012L31.458 4.43236H28.3984V19.9995L31.8752 19.2919L31.8892 15.5136C32.3898 15.8607 33.1269 16.3547 34.3507 16.3547C36.8401 16.3547 39.107 14.4322 39.107 10.2C39.093 6.32819 36.7983 4.21875 34.3646 4.21875ZM33.5302 13.4175C32.7097 13.4175 32.2229 13.1371 31.8892 12.79L31.8752 7.83684C32.2368 7.44967 32.7375 7.18265 33.5302 7.18265C34.7957 7.18265 35.6719 8.54444 35.6719 10.2934C35.6719 12.0824 34.8097 13.4175 33.5302 13.4175Z" fill="#767676"/>
<path fill-rule="evenodd" clip-rule="evenodd" d="M23.6143 3.43118L27.105 2.71023V0L23.6143 0.707598V3.43118Z" fill="#767676"/>
<path d="M27.105 4.44531H23.6143V16.1273H27.105V4.44531Z" fill="#767676"/>
<path fill-rule="evenodd" clip-rule="evenodd" d="M19.8734 5.43359L19.6509 4.44562H16.647V16.1277H20.1237V8.21057C20.9443 7.18255 22.335 7.36947 22.7661 7.51633V4.44562C22.321 4.28541 20.694 3.99169 19.8734 5.43359Z" fill="#767676"/>
<path fill-rule="evenodd" clip-rule="evenodd" d="M12.92 1.54883L9.5266 2.24308L9.5127 12.9371C9.5127 14.9131 11.0564 16.3683 13.1147 16.3683C14.255 16.3683 15.0895 16.1681 15.5484 15.9278V13.2175C15.1034 13.3911 12.906 14.0052 12.906 12.0293V7.28972H15.5484V4.44598H12.906L12.92 1.54883Z" fill="#767676"/>
<path fill-rule="evenodd" clip-rule="evenodd" d="M3.51852 7.83685C3.51852 7.31616 3.96355 7.1159 4.70063 7.1159C5.75757 7.1159 7.09267 7.42297 8.14962 7.97035V4.83289C6.99531 4.39231 5.85493 4.21875 4.70063 4.21875C1.87747 4.21875 0 5.63395 0 7.99706C0 11.6819 5.28473 11.0945 5.28473 12.6832C5.28473 13.2974 4.72845 13.4976 3.94965 13.4976C2.79534 13.4976 1.32119 13.0437 0.152979 12.4296V15.6071C1.44634 16.1411 2.75363 16.3681 3.94965 16.3681C6.84233 16.3681 8.83106 14.9929 8.83106 12.6031C8.81716 8.62455 3.51852 9.33215 3.51852 7.83685Z" fill="#767676"/>
</g>
<defs>
<clipPath id="clip0_97_3000">
<rect width="50" height="20" fill="white"/>
</clipPath>
</defs>
</svg>
