<svg width="21" height="21" viewBox="0 0 21 21" fill="none" xmlns="http://www.w3.org/2000/svg">
<path d="M20.5 3.6308C19.7511 3.99822 18.9567 4.2394 18.1433 4.34631C18.9905 3.78394 19.6411 2.89339 19.9474 1.83232C19.142 2.36163 18.2608 2.73457 17.3419 2.93501C16.5934 2.05191 15.527 1.5 14.3468 1.5C12.0807 1.5 10.2434 3.53459 10.2434 6.044C10.2434 6.4002 10.2798 6.74696 10.3497 7.07963C6.93953 6.89007 3.91609 5.08104 1.89227 2.3318C1.53914 3.00293 1.3368 3.78359 1.3368 4.61625C1.3368 6.19281 2.06125 7.58361 3.16219 8.39853C2.51059 8.37593 1.87332 8.18103 1.30359 7.8301C1.30336 7.84913 1.30336 7.86817 1.30336 7.88729C1.30336 10.0889 2.71773 11.9256 4.59477 12.343C3.99054 12.525 3.35674 12.5517 2.7418 12.4209C3.26391 14.2262 4.7793 15.5399 6.57477 15.5767C5.17047 16.7954 3.40117 17.5219 1.47883 17.5219C1.14758 17.5219 0.821016 17.5004 0.5 17.4584C2.31586 18.7477 4.47266 19.5 6.78984 19.5C14.3373 19.5 18.4644 12.5758 18.4644 6.57098C18.4644 6.37389 18.4605 6.17793 18.4525 5.98309C19.2558 5.33997 19.9492 4.54342 20.5 3.6308Z" fill="#55ACEE"/>
</svg>
