<svg width="31" height="30" viewBox="0 0 31 30" fill="none" xmlns="http://www.w3.org/2000/svg">
<g clip-path="url(#clip0_127_3729)">
<path d="M23.5 2.3C21.15 0.85 18.45 0 15.5 0V2.3H23.5Z" fill="#ED4C5C"/>
<path d="M15.5 4.5998H26.3C25.45 3.7498 24.5 2.9498 23.5 2.2998H15.5V4.5998Z" fill="white"/>
<path d="M15.5 6.9001H28.15C27.6 6.0501 27 5.3001 26.35 4.6001H15.5V6.9001Z" fill="#ED4C5C"/>
<path d="M15.5 9.1999H29.35C29 8.3999 28.6 7.5999 28.15 6.8999H15.5V9.1999Z" fill="white"/>
<path d="M15.5 11.5002H30.1C29.9 10.7002 29.65 9.9502 29.35 9.2002H15.5V11.5002Z" fill="#ED4C5C"/>
<path d="M15.5 13.8498H30.45C30.4 13.0498 30.25 12.2998 30.1 11.5498H15.5V13.8498Z" fill="white"/>
<path d="M30.45 13.8501H15.5V15.0001H0.5C0.5 15.4001 0.5 15.7501 0.55 16.1501H30.45C30.5 15.7501 30.5 15.4001 30.5 15.0001C30.5 14.6001 30.5 14.2001 30.45 13.8501Z" fill="#ED4C5C"/>
<path d="M0.900049 18.4499H30.1C30.3001 17.6999 30.4001 16.9499 30.4501 16.1499H0.550049C0.600049 16.8999 0.750049 17.6999 0.900049 18.4499Z" fill="white"/>
<path d="M1.65002 20.7502H29.35C29.65 20.0002 29.9 19.2502 30.1 18.4502H0.900024C1.10002 19.2502 1.35002 20.0002 1.65002 20.7502Z" fill="#ED4C5C"/>
<path d="M2.85002 23.05H28.15C28.6 22.3 29 21.55 29.35 20.75H1.65002C2.00002 21.55 2.40002 22.3 2.85002 23.05Z" fill="white"/>
<path d="M4.64998 25.3498H26.35C27 24.6498 27.65 23.8498 28.15 23.0498H2.84998C3.34998 23.8998 3.99998 24.6498 4.64998 25.3498Z" fill="#ED4C5C"/>
<path d="M7.45002 27.6501H23.55C24.6 27.0001 25.5 26.2001 26.35 25.3501H4.65002C5.50002 26.2501 6.45002 27.0001 7.45002 27.6501Z" fill="white"/>
<path d="M15.5 29.9999C18.45 29.9999 21.1999 29.1499 23.5499 27.6499H7.44995C9.79995 29.1499 12.55 29.9999 15.5 29.9999Z" fill="#ED4C5C"/>
<path d="M7.5 2.3C6.45 2.95 5.5 3.75 4.65 4.6C3.95 5.3 3.35 6.1 2.85 6.9C2.4 7.65 1.95 8.4 1.65 9.2C1.35 9.95 1.1 10.7 0.9 11.5C0.7 12.25 0.6 13 0.55 13.8C0.5 14.2 0.5 14.6 0.5 15H15.5V0C12.55 0 9.85 0.85 7.5 2.3Z" fill="#428BC1"/>
<path d="M12 0.5L12.25 1.25H13L12.4 1.75L12.6 2.5L12 2.05L11.4 2.5L11.6 1.75L11 1.25H11.75L12 0.5ZM14 3.5L14.25 4.25H15L14.4 4.75L14.6 5.5L14 5.05L13.4 5.5L13.6 4.75L13 4.25H13.75L14 3.5ZM9.99995 3.5L10.25 4.25H11L10.4 4.75L10.6 5.5L9.99995 5.05L9.39995 5.5L9.59995 4.75L8.99995 4.25H9.74995L9.99995 3.5ZM12 6.5L12.25 7.25H13L12.4 7.75L12.6 8.5L12 8.05L11.4 8.5L11.6 7.75L11 7.25H11.75L12 6.5ZM7.99995 6.5L8.24995 7.25H8.99995L8.39995 7.75L8.59995 8.5L7.99995 8.05L7.39995 8.5L7.59995 7.75L6.99995 7.25H7.74995L7.99995 6.5ZM3.99995 6.5L4.24995 7.25H4.99995L4.39995 7.75L4.59995 8.5L3.99995 8.05L3.39995 8.5L3.59995 7.75L2.99995 7.25H3.74995L3.99995 6.5ZM14 9.5L14.25 10.25H15L14.4 10.75L14.6 11.5L14 11.05L13.4 11.5L13.6 10.75L13 10.25H13.75L14 9.5ZM9.99995 9.5L10.25 10.25H11L10.4 10.75L10.6 11.5L9.99995 11.05L9.39995 11.5L9.59995 10.75L8.99995 10.25H9.74995L9.99995 9.5ZM5.99995 9.5L6.24995 10.25H6.99995L6.39995 10.75L6.59995 11.5L5.99995 11.05L5.39995 11.5L5.59995 10.75L4.99995 10.25H5.74995L5.99995 9.5ZM12 12.5L12.25 13.25H13L12.4 13.75L12.6 14.5L12 14.05L11.4 14.5L11.6 13.75L11 13.25H11.75L12 12.5ZM7.99995 12.5L8.24995 13.25H8.99995L8.39995 13.75L8.59995 14.5L7.99995 14.05L7.39995 14.5L7.59995 13.75L6.99995 13.25H7.74995L7.99995 12.5ZM3.99995 12.5L4.24995 13.25H4.99995L4.39995 13.75L4.59995 14.5L3.99995 14.05L3.39995 14.5L3.59995 13.75L2.99995 13.25H3.74995L3.99995 12.5ZM5.39995 5.5L5.99995 5.05L6.59995 5.5L6.34995 4.75L6.94995 4.25H6.19995L5.99995 3.5L5.74995 4.25H5.04995L5.64995 4.7L5.39995 5.5ZM1.39995 11.5L1.99995 11.05L2.59995 11.5L2.34995 10.75L2.94995 10.25H2.24995L1.99995 9.5L1.74995 10.25H1.24995C1.24995 10.3 1.19995 10.35 1.19995 10.4L1.59995 10.7L1.39995 11.5Z" fill="white"/>
</g>
<defs>
<clipPath id="clip0_127_3729">
<rect width="30" height="30" fill="white" transform="translate(0.5)"/>
</clipPath>
</defs>
</svg>
