<svg width="15" height="15" viewBox="0 0 15 15" fill="none" xmlns="http://www.w3.org/2000/svg">
<path d="M10.552 8.9C10.608 8.438 10.65 7.976 10.65 7.5C10.65 7.024 10.608 6.562 10.552 6.1H12.918C13.03 6.548 13.1 7.017 13.1 7.5C13.1 7.983 13.03 8.452 12.918 8.9M9.313 12.792C9.733 12.015 10.055 11.175 10.279 10.3H12.344C11.6658 11.4678 10.5899 12.3524 9.313 12.792ZM9.138 8.9H5.862C5.792 8.438 5.75 7.976 5.75 7.5C5.75 7.024 5.792 6.555 5.862 6.1H9.138C9.201 6.555 9.25 7.024 9.25 7.5C9.25 7.976 9.201 8.438 9.138 8.9ZM7.5 13.072C6.919 12.232 6.45 11.301 6.163 10.3H8.837C8.55 11.301 8.081 12.232 7.5 13.072ZM4.7 4.7H2.656C3.3272 3.52905 4.40236 2.64304 5.68 2.208C5.26 2.985 4.945 3.825 4.7 4.7ZM2.656 10.3H4.7C4.945 11.175 5.26 12.015 5.68 12.792C4.40504 12.3522 3.33139 11.4674 2.656 10.3ZM2.082 8.9C1.97 8.452 1.9 7.983 1.9 7.5C1.9 7.017 1.97 6.548 2.082 6.1H4.448C4.392 6.562 4.35 7.024 4.35 7.5C4.35 7.976 4.392 8.438 4.448 8.9M7.5 1.921C8.081 2.761 8.55 3.699 8.837 4.7H6.163C6.45 3.699 6.919 2.761 7.5 1.921ZM12.344 4.7H10.279C10.0599 3.83302 9.7355 2.99613 9.313 2.208C10.601 2.649 11.672 3.538 12.344 4.7ZM7.5 0.5C3.629 0.5 0.5 3.65 0.5 7.5C0.5 9.35651 1.2375 11.137 2.55025 12.4497C3.20026 13.0998 3.97194 13.6154 4.82122 13.9672C5.67049 14.3189 6.58075 14.5 7.5 14.5C9.35651 14.5 11.137 13.7625 12.4497 12.4497C13.7625 11.137 14.5 9.35651 14.5 7.5C14.5 6.58075 14.3189 5.67049 13.9672 4.82122C13.6154 3.97194 13.0998 3.20026 12.4497 2.55025C11.7997 1.90024 11.0281 1.38463 10.1788 1.03284C9.3295 0.68106 8.41925 0.5 7.5 0.5Z" fill="#667085"/>
</svg>
